<svg xmlns="http://www.w3.org/2000/svg" xmlns:xlink="http://www.w3.org/1999/xlink" version="1.1" x="0px" y="0px" viewBox="0 0 100 125" style="enable-background:new 0 0 100 100;" xml:space="preserve"><g><path d="M92.5,39c0-2.5-2-4.5-4.5-4.5s-4.5,2-4.5,4.5s2,4.5,4.5,4.5S92.5,41.5,92.5,39z M88,41.5c-1.4,0-2.5-1.1-2.5-2.5   s1.1-2.5,2.5-2.5s2.5,1.1,2.5,2.5S89.4,41.5,88,41.5z"/><path d="M11.2,7.9c-1.7,0.9-2.9,2.5-3.4,4.3c-0.5,1.9-0.3,3.8,0.6,5.5c0.9,1.7,2.5,2.9,4.3,3.4c0.7,0.2,1.3,0.3,2,0.3   c1.2,0,2.4-0.3,3.5-0.9c3.5-1.9,4.7-6.4,2.8-9.8C19.1,7.2,14.7,6,11.2,7.9z M17.3,18.8c-1.2,0.7-2.6,0.8-4,0.5   c-1.3-0.4-2.5-1.3-3.1-2.5C10,16.5,9.9,16.3,9.8,16l4.3-2.4c0.5-0.3,0.7-0.9,0.4-1.4c-0.3-0.5-0.9-0.7-1.4-0.4l-3.6,2   c0-0.4,0.1-0.7,0.2-1.1c0.4-1.3,1.3-2.5,2.5-3.1C13,9.2,13.9,9,14.7,9c1.8,0,3.6,1,4.6,2.7c0.2,0.3,0.3,0.6,0.4,0.9c0,0,0,0-0.1,0   l-5,2.8c-0.5,0.3-0.7,0.9-0.4,1.4c0.2,0.3,0.5,0.5,0.9,0.5c0.2,0,0.3,0,0.5-0.1l4.3-2.4C19.8,16.4,18.9,17.9,17.3,18.8z"/><path d="M84.6,15.5l1-1l1,1c0.2,0.2,0.5,0.3,0.7,0.3s0.5-0.1,0.7-0.3c0.4-0.4,0.4-1,0-1.4l-1-1l1-1c0.4-0.4,0.4-1,0-1.4   s-1-0.4-1.4,0l-1,1l-1-1c-0.4-0.4-1-0.4-1.4,0s-0.4,1,0,1.4l1,1l-1,1c-0.4,0.4-0.4,1,0,1.4c0.2,0.2,0.5,0.3,0.7,0.3   S84.4,15.7,84.6,15.5z"/><path d="M17,51.2h-1.5v-1.5c0-0.6-0.4-1-1-1s-1,0.4-1,1v1.5H12c-0.6,0-1,0.4-1,1s0.4,1,1,1h1.5v1.5c0,0.6,0.4,1,1,1s1-0.4,1-1v-1.5   H17c0.6,0,1-0.4,1-1S17.5,51.2,17,51.2z"/><circle cx="80" cy="51.3" r="1"/><circle cx="18.2" cy="32.3" r="1"/><circle cx="90.5" cy="87.3" r="1"/><circle cx="11" cy="82.5" r="1"/><path d="M48.3,62.4c-7.6,0-13.8,6.2-13.8,13.8V92c0,0.6,0.4,1,1,1s1-0.4,1-1V76.2c0-6.5,5.3-11.8,11.8-11.8s11.8,5.3,11.8,11.8V92   c0,0.6,0.4,1,1,1s1-0.4,1-1V76.2C62.1,68.6,55.9,62.4,48.3,62.4z"/><path d="M54.5,76.7H42.1c-1.4,0-2.5,1.1-2.5,2.5v6.6c0,1.4,1.1,2.5,2.5,2.5h12.4c1.4,0,2.5-1.1,2.5-2.5v-6.6   C57,77.8,55.8,76.7,54.5,76.7z M55,85.8c0,0.3-0.2,0.5-0.5,0.5H42.1c-0.3,0-0.5-0.2-0.5-0.5v-6.6c0-0.3,0.2-0.5,0.5-0.5h12.4   c0.3,0,0.5,0.2,0.5,0.5V85.8z"/><path d="M69.1,56.3c0-0.1,0-0.1,0-0.2v-1.6c0-1.4-1.1-2.6-2.6-2.6h0c1.5-1.3,2.8-2.6,2.9-2.7c0.2-0.2,0.3-0.5,0.3-0.7   c0-0.3-0.1-0.5-0.3-0.7l-1.2-1c3.1-3.8,4.9-8.6,4.9-13.6c0-5-1.7-9.8-4.9-13.6l1.2-1c0.4-0.4,0.5-1,0.1-1.4   c-4.6-5.4-11.3-8.4-18.4-8.4c-13.4,0-24.3,11-24.3,24.5c0,7.5,3.4,14.4,9.1,19.1c-0.8,0.4-1.4,1.3-1.4,2.3v1.6   c-0.1,0-0.3,0.1-0.4,0.2c-6.9,5.4-10.9,13.6-10.9,22.3V92c0,0.6,0.4,1,1,1s1-0.4,1-1V78.6c0-8.1,3.6-15.6,10-20.7   c0.5,0.5,1.1,0.8,1.8,0.8h29.6c0.6,0,1.2-0.2,1.6-0.6c3.5,2.9,6.2,6.5,7.8,10.6h-5c-2.3,0-4.1,1.9-4.1,4.1v9.3   c0,2.3,1.9,4.1,4.1,4.1H78V92c0,0.6,0.4,1,1,1s1-0.4,1-1V78.6C80,69.8,76,61.8,69.1,56.3z M71.1,33.2c0,4.5-1.6,8.8-4.4,12.3   L56,36.2c0.5-0.9,0.9-1.9,0.9-3c0-1.1-0.3-2.1-0.9-3l10.8-9.3C69.5,24.4,71.1,28.7,71.1,33.2z M51,19.5c-0.4,0-0.8-0.4-0.8-0.8   c0-0.4,0.3-0.8,0.8-0.8s0.8,0.4,0.8,0.8C51.8,19.1,51.4,19.5,51,19.5z M51.1,29.5c2,0,3.7,1.7,3.7,3.7c0,2.1-1.7,3.7-3.7,3.7   s-3.7-1.7-3.7-3.7C47.4,31.2,49.1,29.5,51.1,29.5z M50.5,27.5L51,22l0.4,5.5c-0.1,0-0.2,0-0.3,0C50.9,27.5,50.7,27.5,50.5,27.5z    M28.8,33.2c0-12.4,10-22.5,22.3-22.5c6.1,0,12,2.5,16.2,7l-12.7,11c-0.3-0.3-0.7-0.5-1.1-0.7l-0.6-7.3c0.5-0.5,0.9-1.2,0.9-2   c0-1.5-1.2-2.8-2.8-2.8s-2.8,1.3-2.8,2.8c0,0.8,0.3,1.5,0.9,2l-0.6,7.4c-1.8,1-3.1,2.9-3.1,5.1c0,3.2,2.6,5.7,5.7,5.7   c1.3,0,2.5-0.5,3.5-1.2l12.6,10.9c-1,0.9-2.7,2.5-3.9,3.4H38.9l0,0C32.6,47.8,28.8,40.8,28.8,33.2z M66.6,56.7H37   c-0.3,0-0.6-0.3-0.6-0.6v-1.6c0-0.3,0.3-0.6,0.6-0.6h29.6c0.3,0,0.6,0.3,0.6,0.6v1.6C67.1,56.5,66.9,56.7,66.6,56.7z M71,84.3   c-1.2,0-2.1-1-2.1-2.1v-9.3c0-1.2,1-2.1,2.1-2.1h5.7c0.8,2.5,1.2,5.2,1.2,7.9v5.7H71z"/></g><text x="0" y="115" fill="#000000" font-size="5px" font-weight="bold" font-family="'Helvetica Neue', Helvetica, Arial-Unicode, Arial, Sans-serif">Created by Artem  Kovyazin</text><text x="0" y="120" fill="#000000" font-size="5px" font-weight="bold" font-family="'Helvetica Neue', Helvetica, Arial-Unicode, Arial, Sans-serif">from the Noun Project</text></svg>